<svg xmlns="http://www.w3.org/2000/svg" width="28" height="28" viewBox="0 0 28 28">
  <g id="stickies" transform="translate(3.379 3.379)">
    <g id="Icon_Date_Calendar" data-name="Icon — Date / Calendar" transform="translate(-3.379 -3.379)">
      <rect id="Rectangle_1068" data-name="Rectangle 1068" width="28" height="28" fill="#fff" opacity="0"/>
      <path id="Path_5891" data-name="Path 5891" d="M1199.611-3656.25a2.59,2.59,0,0,1-2.612-2.563v-15.875a2.59,2.59,0,0,1,2.612-2.563h2.055v-1.166a.583.583,0,0,1,.583-.584.583.583,0,0,1,.583.584v1.166h5.25v-1.166a.583.583,0,0,1,.583-.584.583.583,0,0,1,.583.584v1.166h5.25v-1.166a.583.583,0,0,1,.583-.584.583.583,0,0,1,.583.584v1.166h2.055a2.59,2.59,0,0,1,2.612,2.563v15.875a2.59,2.59,0,0,1-2.612,2.563Zm-1.444-2.563a1.423,1.423,0,0,0,1.444,1.4h18.11a1.423,1.423,0,0,0,1.445-1.4v-12.02h-21Zm21-13.187h0v-2.688a1.422,1.422,0,0,0-1.445-1.4h-2.055v1.167a.584.584,0,0,1-.583.583.583.583,0,0,1-.583-.583v-1.167h-5.25v1.167a.583.583,0,0,1-.583.583.583.583,0,0,1-.583-.583v-1.167h-5.25v1.167a.583.583,0,0,1-.583.583.583.583,0,0,1-.583-.583v-1.167h-2.055a1.422,1.422,0,0,0-1.444,1.4V-3672h21Z" transform="translate(-1194.667 3681.334)" fill="#fff" stroke="rgba(0,0,0,0)" stroke-width="1"/>
    </g>
  </g>
</svg>
