<svg id="Router" xmlns="http://www.w3.org/2000/svg" width="24" height="24" viewBox="0 0 24 24">
  <rect id="Rectangle_17714" data-name="Rectangle 17714" width="24" height="24" fill="rgba(217,217,217,0)"/>
  <g id="Group_44700" data-name="Group 44700" transform="translate(4.575 4.266)">
    <path id="Path_33344" data-name="Path 33344" d="M255.58,83.4a9.141,9.141,0,0,0-4.064,1.224.45.45,0,0,1-.4-.805A10,10,0,0,1,255.58,82.5a9.309,9.309,0,0,1,4.353,1.323.45.45,0,0,1-.418.8A8.442,8.442,0,0,0,255.58,83.4Z" transform="translate(-247.905 -82.5)" fill="#00887f" fill-rule="evenodd"/>
    <path id="Path_33345" data-name="Path 33345" d="M261.491,99.506a3.96,3.96,0,0,0-1.656.467.45.45,0,1,1-.377-.817,4.826,4.826,0,0,1,2.033-.55,4.5,4.5,0,0,1,1.988.554.45.45,0,1,1-.393.81A3.634,3.634,0,0,0,261.491,99.506Z" transform="translate(-253.738 -93.774)" fill="#00887f" fill-rule="evenodd"/>
    <path id="Path_33346" data-name="Path 33346" d="M258.741,91.878a6.655,6.655,0,0,0-2.7.724.45.45,0,1,1-.365-.823,7.519,7.519,0,0,1,3.064-.8,7,7,0,0,1,2.99.8.45.45,0,1,1-.38.816A6.126,6.126,0,0,0,258.741,91.878Z" transform="translate(-251.086 -88.434)" fill="#00887f" fill-rule="evenodd"/>
    <path id="Path_33347" data-name="Path 33347" d="M254.2,110.331H242.8a.9.9,0,0,0-.9.9V114.5a.9.9,0,0,0,.9.9h11.4a.9.9,0,0,0,.9-.9v-3.266A.9.9,0,0,0,254.2,110.331Zm-11.4-.9a1.8,1.8,0,0,0-1.8,1.8V114.5a1.8,1.8,0,0,0,1.8,1.8h11.4a1.8,1.8,0,0,0,1.8-1.8v-3.266a1.8,1.8,0,0,0-1.8-1.8Z" transform="translate(-241 -101.352)" fill="#00887f" fill-rule="evenodd"/>
    <path id="Path_33348" data-name="Path 33348" d="M249.7,120.058a.45.45,0,0,1,.45-.45H252.3a.45.45,0,0,1,0,.9h-2.143A.45.45,0,0,1,249.7,120.058Z" transform="translate(-247.093 -108.476)" fill="#00887f" fill-rule="evenodd"/>
  </g>
</svg>
